<svg version="1.1" id="Layer_1" xmlns="http://www.w3.org/2000/svg" xmlns:xlink="http://www.w3.org/1999/xlink" x="0px" y="0px"
	 width="100%" viewBox="0 0 512 512" enable-background="none" xml:space="preserve">
<path fill="#ffff" opacity="1.000000" stroke="none" 
	d="
M1.000000,187.000000 
	C1.000000,124.666664 1.000000,62.833332 1.000000,1.000000 
	C171.666672,1.000000 342.333344,1.000000 513.000000,1.000000 
	C513.000000,171.666672 513.000000,342.333344 513.000000,513.000000 
	C342.333344,513.000000 171.666672,513.000000 1.000000,513.000000 
	C1.000000,404.500000 1.000000,296.000000 1.000000,187.000000 
M103.022919,496.528809 
	C112.519783,503.588928 123.048714,507.080780 135.018417,507.065063 
	C226.332703,506.945251 317.647247,507.009277 408.961670,506.956970 
	C412.055786,506.955200 415.240295,506.687378 418.229248,505.934509 
	C443.786591,499.496887 461.727844,477.286133 461.827026,451.231293 
	C462.238098,343.255188 461.980591,235.276581 462.072571,127.298965 
	C462.076111,123.139420 460.769012,120.141975 457.845093,117.265129 
	C428.542725,88.434555 399.329437,59.513405 370.108887,30.599779 
	C363.594879,24.154196 357.146454,17.642256 350.675964,11.152761 
	C347.908173,8.376845 344.831360,6.913434 340.659393,6.920140 
	C270.840668,7.032388 201.021683,6.975027 131.202911,7.076014 
	C127.671379,7.081122 124.060188,7.877354 120.623680,8.811450 
	C94.881180,15.808671 79.149040,40.685074 79.074890,65.667046 
	C78.863693,136.818375 79.001091,207.970749 79.001297,279.122711 
	C79.001305,281.029083 79.001305,282.935425 79.001305,285.229492 
	C69.562485,285.229492 60.962578,285.229492 52.376770,285.229492 
	C52.376770,335.337494 52.376770,385.045135 52.376770,435.146973 
	C61.349613,435.146973 69.950005,435.146973 79.110725,435.146973 
	C77.624367,459.229614 82.606934,480.577820 103.022919,496.528809 
z"/>
<path fill="#ED1C24" opacity="1.000000" stroke="none" 
	d="
M102.768089,496.268921 
	C82.606934,480.577820 77.624367,459.229614 79.110725,435.146973 
	C69.950005,435.146973 61.349613,435.146973 52.376770,435.146973 
	C52.376770,385.045135 52.376770,335.337494 52.376770,285.229492 
	C60.962578,285.229492 69.562485,285.229492 79.001305,285.229492 
	C79.001305,282.935425 79.001305,281.029083 79.001297,279.122711 
	C79.001091,207.970749 78.863693,136.818375 79.074890,65.667046 
	C79.149040,40.685074 94.881180,15.808671 120.623680,8.811450 
	C124.060188,7.877354 127.671379,7.081122 131.202911,7.076014 
	C201.021683,6.975027 270.840668,7.032388 340.659393,6.920140 
	C344.831360,6.913434 347.908173,8.376845 350.675964,11.152761 
	C357.146454,17.642256 363.594879,24.154196 370.108887,30.599779 
	C399.329437,59.513405 428.542725,88.434555 457.845093,117.265129 
	C460.769012,120.141975 462.076111,123.139420 462.072571,127.298965 
	C461.980591,235.276581 462.238098,343.255188 461.827026,451.231293 
	C461.727844,477.286133 443.786591,499.496887 418.229248,505.934509 
	C415.240295,506.687378 412.055786,506.955200 408.961670,506.956970 
	C317.647247,507.009277 226.332703,506.945251 135.018417,507.065063 
	C123.048714,507.080780 112.519783,503.588928 102.768089,496.268921 
M103.063820,44.726830 
	C99.319305,51.763832 97.025124,59.228024 97.021011,67.230850 
	C96.984619,138.053802 96.999969,208.876801 97.000031,279.699768 
	C97.000038,281.314545 97.000031,282.929321 97.000031,285.000092 
	C99.490570,285.000092 101.448433,285.000061 103.406296,285.000061 
	C164.064087,285.000061 224.721924,284.972839 285.379578,285.063599 
	C289.274414,285.069427 293.246735,285.651245 297.047760,286.542175 
	C310.466431,289.687439 321.432434,296.731415 330.695099,307.037506 
	C342.236542,319.879120 348.166534,335.032166 349.842773,351.775818 
	C351.212128,365.453644 349.461151,378.992432 343.969666,391.841003 
	C333.133209,417.195465 310.929321,434.825836 282.428131,434.932739 
	C222.604385,435.157135 162.779221,435.001129 102.954643,435.001251 
	C101.039139,435.001251 99.123634,435.001221 96.999954,435.001221 
	C96.999954,438.437500 97.087784,441.098206 96.986290,443.751678 
	C96.030617,468.737152 113.441269,489.323853 141.894745,489.166199 
	C225.879883,488.700867 309.869263,489.018311 393.856934,488.957581 
	C399.287964,488.953644 404.745209,488.576904 410.144501,487.968018 
	C429.099854,485.830353 443.829163,468.797668 443.877258,449.990326 
	C444.137756,348.172546 444.001099,246.353760 444.001282,144.535324 
	C444.001282,142.779373 444.001282,141.023407 444.001282,138.999527 
	C421.462982,138.999527 399.650726,139.000320 377.838440,138.997818 
	C376.338928,138.997650 374.780945,139.237244 373.348602,138.920349 
	C349.016907,133.537598 331.744629,119.865562 324.178375,95.648056 
	C322.157715,89.180450 321.312347,82.145805 321.138763,75.340584 
	C320.715240,58.735268 321.000671,42.111870 321.000671,25.000122 
	C319.233215,25.000122 317.938690,25.000124 316.644135,25.000122 
	C257.152832,25.000078 197.661484,24.966413 138.170380,25.077566 
	C134.309189,25.084778 130.423645,26.072657 126.595062,26.833958 
	C116.169098,28.907135 109.478020,36.075119 103.063820,44.726830 
M392.548615,120.999992 
	C406.118988,120.999992 419.689331,120.999992 434.854034,120.999992 
	C402.445496,89.050247 371.123840,58.172043 339.997437,27.486290 
	C339.997437,46.194393 339.347534,64.467171 340.203857,82.669075 
	C340.884186,97.130035 349.352417,107.578445 361.604828,114.836563 
	C370.833344,120.303360 381.204620,120.755867 392.548615,120.999992 
M176.001190,343.500244 
	C176.001190,361.252747 176.001190,379.005280 176.001190,397.484802 
	C187.014145,396.965302 197.289368,396.881409 207.475952,395.888428 
	C217.860107,394.876190 227.500015,385.439453 230.067917,375.241211 
	C232.229782,366.655487 232.310501,358.142151 231.128647,349.359253 
	C229.627701,338.205200 223.718430,330.697357 213.953934,325.979065 
	C201.812897,320.112396 188.928299,324.302429 176.001190,322.789581 
	C176.001190,329.900299 176.001190,336.200409 176.001190,343.500244 
M154.552933,331.083893 
	C150.359390,328.723022 146.297195,324.662323 141.947174,324.326141 
	C129.840469,323.390503 117.614265,324.001221 105.326950,324.001221 
	C105.326950,347.939240 105.326950,372.302246 105.326950,396.602844 
	C109.374168,396.602844 113.085724,396.602844 117.125908,396.602844 
	C117.125908,386.935577 117.125908,377.662811 117.125908,369.250275 
	C123.562897,368.816986 129.603317,368.157196 135.652527,368.063354 
	C144.446030,367.926849 151.783371,365.120056 156.213699,357.206879 
	C161.046432,348.574951 160.267258,339.974884 154.552933,331.083893 
M262.787781,365.030457 
	C272.054596,365.030457 281.321442,365.030457 290.655121,365.030457 
	C290.655121,361.724335 290.655121,359.015167 290.655121,355.756287 
	C280.603851,355.756287 270.888947,355.756287 261.286255,355.756287 
	C261.286255,347.603668 261.286255,340.014343 261.286255,331.885864 
	C273.278778,331.885864 284.993622,331.885864 296.596558,331.885864 
	C296.596558,328.617584 296.596558,325.907532 296.596558,323.269653 
	C280.615234,323.269653 265.038300,323.269653 249.298584,323.269653 
	C249.298584,347.895050 249.298584,372.249969 249.298584,396.634399 
	C253.314743,396.634399 257.024475,396.634399 261.000092,396.634399 
	C261.000092,389.799072 260.901764,383.324493 261.036835,376.854767 
	C261.118225,372.954468 261.562531,369.061737 262.787781,365.030457 
z"/>
<path fill="#ffff" opacity="1.000000" stroke="none" 
	d="
M103.252693,44.405632 
	C109.478020,36.075119 116.169098,28.907135 126.595062,26.833958 
	C130.423645,26.072657 134.309189,25.084778 138.170380,25.077566 
	C197.661484,24.966413 257.152832,25.000078 316.644135,25.000122 
	C317.938690,25.000124 319.233215,25.000122 321.000671,25.000122 
	C321.000671,42.111870 320.715240,58.735268 321.138763,75.340584 
	C321.312347,82.145805 322.157715,89.180450 324.178375,95.648056 
	C331.744629,119.865562 349.016907,133.537598 373.348602,138.920349 
	C374.780945,139.237244 376.338928,138.997650 377.838440,138.997818 
	C399.650726,139.000320 421.462982,138.999527 444.001282,138.999527 
	C444.001282,141.023407 444.001282,142.779373 444.001282,144.535324 
	C444.001099,246.353760 444.137756,348.172546 443.877258,449.990326 
	C443.829163,468.797668 429.099854,485.830353 410.144501,487.968018 
	C404.745209,488.576904 399.287964,488.953644 393.856934,488.957581 
	C309.869263,489.018311 225.879883,488.700867 141.894745,489.166199 
	C113.441269,489.323853 96.030617,468.737152 96.986290,443.751678 
	C97.087784,441.098206 96.999954,438.437500 96.999954,435.001221 
	C99.123634,435.001221 101.039139,435.001251 102.954643,435.001251 
	C162.779221,435.001129 222.604385,435.157135 282.428131,434.932739 
	C310.929321,434.825836 333.133209,417.195465 343.969666,391.841003 
	C349.461151,378.992432 351.212128,365.453644 349.842773,351.775818 
	C348.166534,335.032166 342.236542,319.879120 330.695099,307.037506 
	C321.432434,296.731415 310.466431,289.687439 297.047760,286.542175 
	C293.246735,285.651245 289.274414,285.069427 285.379578,285.063599 
	C224.721924,284.972839 164.064087,285.000061 103.406296,285.000061 
	C101.448433,285.000061 99.490570,285.000092 97.000031,285.000092 
	C97.000031,282.929321 97.000038,281.314545 97.000031,279.699768 
	C96.999969,208.876801 96.984619,138.053802 97.021011,67.230850 
	C97.025124,59.228024 99.319305,51.763832 103.252693,44.405632 
z"/>
<path fill="#ffff" opacity="1.000000" stroke="none" 
	d="
M392.057404,120.999992 
	C381.204620,120.755867 370.833344,120.303360 361.604828,114.836563 
	C349.352417,107.578445 340.884186,97.130035 340.203857,82.669075 
	C339.347534,64.467171 339.997437,46.194393 339.997437,27.486290 
	C371.123840,58.172043 402.445496,89.050247 434.854034,120.999992 
	C419.689331,120.999992 406.118988,120.999992 392.057404,120.999992 
z"/>
<path fill="#ffff" opacity="1.000000" stroke="none" 
	d="
M176.001190,343.000366 
	C176.001190,336.200409 176.001190,329.900299 176.001190,322.789581 
	C188.928299,324.302429 201.812897,320.112396 213.953934,325.979065 
	C223.718430,330.697357 229.627701,338.205200 231.128647,349.359253 
	C232.310501,358.142151 232.229782,366.655487 230.067917,375.241211 
	C227.500015,385.439453 217.860107,394.876190 207.475952,395.888428 
	C197.289368,396.881409 187.014145,396.965302 176.001190,397.484802 
	C176.001190,379.005280 176.001190,361.252747 176.001190,343.000366 
M187.001129,342.531250 
	C187.001129,357.602448 187.001129,372.673676 187.001129,387.999908 
	C191.882263,387.999908 196.028152,388.009033 200.173981,387.998077 
	C209.021912,387.974701 216.497391,383.568787 218.164505,375.039429 
	C219.849213,366.420197 219.805466,357.354736 219.529022,348.515686 
	C219.423126,345.130188 217.158112,341.351288 214.872833,338.579590 
	C207.406433,329.523926 197.049866,332.316742 187.001129,332.116364 
	C187.001129,335.604858 187.001129,338.574982 187.001129,342.531250 
z"/>
<path fill="#ffff" opacity="1.000000" stroke="none" 
	d="
M154.739136,331.406982 
	C160.267258,339.974884 161.046432,348.574951 156.213699,357.206879 
	C151.783371,365.120056 144.446030,367.926849 135.652527,368.063354 
	C129.603317,368.157196 123.562897,368.816986 117.125908,369.250275 
	C117.125908,377.662811 117.125908,386.935577 117.125908,396.602844 
	C113.085724,396.602844 109.374168,396.602844 105.326950,396.602844 
	C105.326950,372.302246 105.326950,347.939240 105.326950,324.001221 
	C117.614265,324.001221 129.840469,323.390503 141.947174,324.326141 
	C146.297195,324.662323 150.359390,328.723022 154.739136,331.406982 
M144.445862,355.982635 
	C144.960846,355.150665 145.476639,354.319183 145.990662,353.486633 
	C150.989029,345.390839 146.876907,333.540588 137.983765,332.267365 
	C131.223450,331.299438 124.213486,332.075256 117.366997,332.075256 
	C117.366997,341.365417 117.366997,350.053192 117.366997,359.208069 
	C126.451546,357.861633 135.527328,361.345398 144.445862,355.982635 
z"/>
<path fill="#ffff" opacity="1.000000" stroke="none" 
	d="
M262.315735,365.098022 
	C261.562531,369.061737 261.118225,372.954468 261.036835,376.854767 
	C260.901764,383.324493 261.000092,389.799072 261.000092,396.634399 
	C257.024475,396.634399 253.314743,396.634399 249.298584,396.634399 
	C249.298584,372.249969 249.298584,347.895050 249.298584,323.269653 
	C265.038300,323.269653 280.615234,323.269653 296.596558,323.269653 
	C296.596558,325.907532 296.596558,328.617584 296.596558,331.885864 
	C284.993622,331.885864 273.278778,331.885864 261.286255,331.885864 
	C261.286255,340.014343 261.286255,347.603668 261.286255,355.756287 
	C270.888947,355.756287 280.603851,355.756287 290.655121,355.756287 
	C290.655121,359.015167 290.655121,361.724335 290.655121,365.030457 
	C281.321442,365.030457 272.054596,365.030457 262.315735,365.098022 
z"/>
<path fill="#ED1C24" opacity="1.000000" stroke="none" 
	d="
M187.001129,342.038177 
	C187.001129,338.574982 187.001129,335.604858 187.001129,332.116364 
	C197.049866,332.316742 207.406433,329.523926 214.872833,338.579590 
	C217.158112,341.351288 219.423126,345.130188 219.529022,348.515686 
	C219.805466,357.354736 219.849213,366.420197 218.164505,375.039429 
	C216.497391,383.568787 209.021912,387.974701 200.173981,387.998077 
	C196.028152,388.009033 191.882263,387.999908 187.001129,387.999908 
	C187.001129,372.673676 187.001129,357.602448 187.001129,342.038177 
z"/>
<path fill="#ED1C24" opacity="1.000000" stroke="none" 
	d="
M144.184875,356.278687 
	C135.527328,361.345398 126.451546,357.861633 117.366997,359.208069 
	C117.366997,350.053192 117.366997,341.365417 117.366997,332.075256 
	C124.213486,332.075256 131.223450,331.299438 137.983765,332.267365 
	C146.876907,333.540588 150.989029,345.390839 145.990662,353.486633 
	C145.476639,354.319183 144.960846,355.150665 144.184875,356.278687 
z"/>
</svg>