<svg xmlns="http://www.w3.org/2000/svg" width="512" height="512" viewBox="0 0 512 512">
  <metadata><?xpacket begin="﻿" id="W5M0MpCehiHzreSzNTczkc9d"?>
<x:xmpmeta xmlns:x="adobe:ns:meta/" x:xmptk="Adobe XMP Core 5.6-c142 79.160924, 2017/07/13-01:06:39        ">
   <rdf:RDF xmlns:rdf="http://www.w3.org/1999/02/22-rdf-syntax-ns#">
      <rdf:Description rdf:about=""/>
   </rdf:RDF>
</x:xmpmeta>
                                                                                                    
                                                                                                    
                                                                                                    
                                                                                                    
                                                                                                    
                                                                                                    
                                                                                                    
                                                                                                    
                                                                                                    
                                                                                                    
                                                                                                    
                                                                                                    
                                                                                                    
                                                                                                    
                                                                                                    
                                                                                                    
                                                                                                    
                                                                                                    
                                                                                                    
                                                                                                    
                           
<?xpacket end="w"?></metadata>
<defs>
    <style>
      .cls-1 {
        fill: #fff;
        fill-rule: evenodd;
      }
    </style>
  </defs>
  <path class="cls-1" d="M80,0H432a24,24,0,0,1,24,24V488a24,24,0,0,1-24,24H80a24,24,0,0,1-24-24V24A24,24,0,0,1,80,0Zm41,288H391a15,15,0,0,1,0,30H121A15,15,0,0,1,121,288Zm0,54H391a15,15,0,0,1,0,30H121A15,15,0,0,1,121,342Zm0,54H391a15,15,0,0,1,0,30H121A15,15,0,0,1,121,396ZM194,86h45a10,10,0,0,1,10,10v45a10,10,0,0,1-10,10H194a10,10,0,0,1-10-10V96A10,10,0,0,1,194,86Zm79,0h45a10,10,0,0,1,10,10v45a10,10,0,0,1-10,10H273a10,10,0,0,1-10-10V96A10,10,0,0,1,273,86Zm-79,79h45a10,10,0,0,1,10,10v45a10,10,0,0,1-10,10H194a10,10,0,0,1-10-10V175A10,10,0,0,1,194,165Zm79,0h45a10,10,0,0,1,10,10v45a10,10,0,0,1-10,10H273a10,10,0,0,1-10-10V175A10,10,0,0,1,273,165Z"/>
</svg>
