<svg xmlns="http://www.w3.org/2000/svg" width="512" height="512" viewBox="0 0 512 512">
  <metadata><?xpacket begin="﻿" id="W5M0MpCehiHzreSzNTczkc9d"?>
<x:xmpmeta xmlns:x="adobe:ns:meta/" x:xmptk="Adobe XMP Core 5.6-c142 79.160924, 2017/07/13-01:06:39        ">
   <rdf:RDF xmlns:rdf="http://www.w3.org/1999/02/22-rdf-syntax-ns#">
      <rdf:Description rdf:about=""/>
   </rdf:RDF>
</x:xmpmeta>
                                                                                                    
                                                                                                    
                                                                                                    
                                                                                                    
                                                                                                    
                                                                                                    
                                                                                                    
                                                                                                    
                                                                                                    
                                                                                                    
                                                                                                    
                                                                                                    
                                                                                                    
                                                                                                    
                                                                                                    
                                                                                                    
                                                                                                    
                                                                                                    
                                                                                                    
                                                                                                    
                           
<?xpacket end="w"?></metadata>
<defs>
    <style>
      .cls-1 {
        fill: #b1b7b6;
        fill-rule: evenodd;
      }
    </style>
  </defs>
  <path id="Forma_1" data-name="Forma 1" class="cls-1" d="M374.154,181.72H512V117.778A73.9,73.9,0,0,0,438.154,44H73.846A73.9,73.9,0,0,0,0,117.778V393.221A73.9,73.9,0,0,0,73.846,467H438.154A73.9,73.9,0,0,0,512,393.221V329.279H374.154A73.78,73.78,0,1,1,374.154,181.72Zm0,29.512a44.268,44.268,0,1,0,0,88.536H512V211.233H374.154Zm19.692,59.023H374.154a14.756,14.756,0,1,1,0-29.511h19.692A14.756,14.756,0,1,1,393.846,270.255Z"/>
</svg>
